<svg xmlns="http://www.w3.org/2000/svg" width="35.427" height="35.432" viewBox="0 0 35.427 35.432">
  <g id="login" transform="translate(0 0)">
    <path id="Path_2" data-name="Path 2" d="M1.038,17.716A16.675,16.675,0,0,1,28.546,5.035a.519.519,0,0,0,.675-.789A17.719,17.719,0,0,0,1.53,24.929a.519.519,0,0,0,.948-.423,16.555,16.555,0,0,1-1.44-6.79Zm0,0" transform="translate(0 0)" fill="#56577f"/>
    <path id="Path_3" data-name="Path 3" d="M68.205,86.207a.519.519,0,0,0-.785.679A16.677,16.677,0,1,1,40.8,106.852a.519.519,0,1,0-.871.565,17.715,17.715,0,1,0,28.275-21.21Zm0,0" transform="translate(-37.088 -80.074)" fill="#56577f"/>
    <path id="Path_4" data-name="Path 4" d="M164.066,138.431a11.71,11.71,0,0,1-6.261,1.8,11.865,11.865,0,0,1-2.178-.2.519.519,0,1,0-.191,1.02,12.9,12.9,0,0,0,2.369.219,12.745,12.745,0,0,0,6.815-1.965,1.583,1.583,0,0,0,.741-1.347,7.567,7.567,0,0,0-5.242-7.2,4.3,4.3,0,1,0-4.623,0,7.57,7.57,0,0,0-5.245,7.2,1.583,1.583,0,0,0,.741,1.347,12.749,12.749,0,0,0,2.15,1.088.519.519,0,0,0,.379-.966,11.705,11.705,0,0,1-1.974-1,.551.551,0,0,1-.257-.469,6.517,6.517,0,1,1,13.035,0,.55.55,0,0,1-.257.469Zm-9.522-11.287a3.261,3.261,0,1,1,3.261,3.262A3.265,3.265,0,0,1,154.544,127.144Zm0,0" transform="translate(-139.851 -114.342)" fill="#56577f"/>
  </g>
</svg>
